<?xml version="1.0" encoding="UTF-8" standalone="no"?>
<svg width="32px" height="32px" viewBox="0 0 32 32" version="1.1" xmlns="http://www.w3.org/2000/svg" xmlns:xlink="http://www.w3.org/1999/xlink">
    <!-- Generator: Sketch 44.1 (41455) - http://www.bohemiancoding.com/sketch -->
    <title>Expand 5</title>
    <desc>Created with Sketch.</desc>
    <defs></defs>
    <g id="Page-2-Copy" stroke="none" stroke-width="1" fill="none" fill-rule="evenodd">
        <g id="100" stroke="#979797" fill-rule="nonzero">
            <path d="M0,2.00174332 C0,0.889261723 0.89621101,0 2.00174332,0 L29.9982567,0 C31.1107383,0 32,0.89621101 32,2.00174332 L32,29.9982567 C32,31.1107383 31.103789,32 29.9982567,32 L2.00174332,32 C0.889261723,32 0,31.103789 0,29.9982567 L0,2.00174332 Z M29.9982567,2 C29.9982567,2 2,1.99730764 2,2.00174332 C2,2.00174332 1.99730764,30 2.00174332,30 C2.00174332,30 30,30.0026924 30,29.9982567 C30,29.9982567 30.0026924,2 29.9982567,2 Z" id="Rectangle-577" stroke="none" fill="#95909E"></path>
            <path d="M18.982666,4.01501477 L25.2086562,4.01501477 L26.982666,4.01501477 C27.5349508,4.01501477 27.982666,4.46273002 27.982666,5.01501477 L27.982666,13.0150148 C27.982666,13.5672995 27.5349508,14.0150148 26.982666,14.0150148 C26.4303813,14.0150148 25.982666,13.5672995 25.982666,13.0150148 L25.982666,7.39651849 L18.8064704,14.5727142 C18.4129047,14.9662798 17.7783379,14.9676816 17.3878136,14.5771573 C16.9945666,14.1839104 16.9992786,13.5514788 17.3922568,13.1585006 L24.5357426,6.01501477 L18.982666,6.01501477 C18.4303813,6.01501477 17.982666,5.56729952 17.982666,5.01501477 C17.982666,4.46273002 18.4303813,4.01501477 18.982666,4.01501477 L18.982666,4.01501477 Z M13.017334,27.9791261 L6.7913438,27.9791261 L5.01733398,27.9791261 C4.46504923,27.9791261 4.01733398,27.5314108 4.01733398,26.9791261 L4.01733398,18.9791261 C4.01733398,18.4268413 4.46504923,17.9791261 5.01733398,17.9791261 C5.56961873,17.9791261 6.01733398,18.4268413 6.01733398,18.9791261 L6.01733398,24.5976224 L13.1935296,17.4214267 C13.5870953,17.027861 14.2216621,17.0264592 14.6121864,17.4169835 C15.0054334,17.8102305 15.0007214,18.4426621 14.6077432,18.8356403 L7.46425739,25.9791261 L13.017334,25.9791261 C13.5696187,25.9791261 14.017334,26.4268413 14.017334,26.9791261 C14.017334,27.5314108 13.5696187,27.9791261 13.017334,27.9791261 L13.017334,27.9791261 Z" id="Rectangle-370" stroke="none" fill="#2A2630"></path>
        </g>
    </g>
</svg>