<?xml version='1.0' encoding='iso-8859-1'?>
<svg version="1.1" xmlns="http://www.w3.org/2000/svg" viewBox="0 0 30 30" xmlns:xlink="http://www.w3.org/1999/xlink" enable-background="new 0 0 30 30">
  <g>
    <g>
      <path fill-rule="evenodd" d="M17,0h-4C7.477,0,3,6.716,3,15s4.477,15,10,15h4c5.523,0,10-6.716,10-15    S22.523,0,17,0z M13,28c-4.418,0-8-5.82-8-13S8.582,2,13,2s8,5.82,8,13S17.418,28,13,28z M18.135,27.854    C21.045,25.232,23,20.465,23,15S21.045,4.768,18.135,2.146C22.014,3.043,25,8.448,25,15S22.014,26.957,18.135,27.854z M13,8    c-0.357,0-0.656,0.198-0.833,0.479l-2.7,1.858c-0.455,0.247-0.61,0.795-0.348,1.223c0.262,0.428,0.844,0.575,1.299,0.327    L12,10.751V22c0,0.553,0.447,1,1,1c0.553,0,1-0.447,1-1V9C14,8.447,13.553,8,13,8z"/>
    </g>
  </g>
</svg>
